<svg xmlns="http://www.w3.org/2000/svg" viewBox="0 0 32 32">
  <!-- Background -->
  <rect width="32" height="32" rx="6" fill="#1976d2"/>

  <!-- SD Icon (stylized image generator) -->
  <g fill="#ffffff">
    <!-- Camera/lens shape -->
    <circle cx="16" cy="16" r="7" fill="none" stroke="#ffffff" stroke-width="2"/>
    <circle cx="16" cy="16" r="3" fill="#ffffff"/>

    <!-- Sparkles (AI generation) -->
    <path d="M 8 8 L 9 10 L 11 11 L 9 12 L 8 14 L 7 12 L 5 11 L 7 10 Z" opacity="0.9"/>
    <path d="M 24 8 L 25 10 L 27 11 L 25 12 L 24 14 L 23 12 L 21 11 L 23 10 Z" opacity="0.7"/>
    <path d="M 8 24 L 9 22 L 11 21 L 9 20 L 8 18 L 7 20 L 5 21 L 7 22 Z" opacity="0.8"/>
    <path d="M 24 24 L 25 22 L 27 21 L 25 20 L 24 18 L 23 20 L 21 21 L 23 22 Z" opacity="0.6"/>
  </g>
</svg>
